<mxfile host="Electron" agent="Mozilla/5.0 (Macintosh; Intel Mac OS X 10_15_7) AppleWebKit/537.36 (KHTML, like Gecko) draw.io/24.7.8 Chrome/128.0.6613.36 Electron/32.0.1 Safari/537.36" version="24.7.8">
  <diagram name="Page-1" id="iu3V4geWWpMGNy3MugpX">
    <mxGraphModel dx="2653" dy="2536" grid="1" gridSize="10" guides="1" tooltips="1" connect="1" arrows="1" fold="1" page="1" pageScale="1" pageWidth="827" pageHeight="1169" math="0" shadow="0">
      <root>
        <mxCell id="0" />
        <mxCell id="1" parent="0" />
        <mxCell id="LPntxPcNXTBSjkaFNB8H-1" value="START&lt;div&gt;IPL_AUCTION&lt;/div&gt;" style="rounded=0;whiteSpace=wrap;html=1;" vertex="1" parent="1">
          <mxGeometry x="335" y="-90" width="150" height="40" as="geometry" />
        </mxCell>
        <mxCell id="LPntxPcNXTBSjkaFNB8H-90" style="edgeStyle=orthogonalEdgeStyle;rounded=0;orthogonalLoop=1;jettySize=auto;html=1;exitX=0.5;exitY=1;exitDx=0;exitDy=0;" edge="1" parent="1" source="LPntxPcNXTBSjkaFNB8H-2">
          <mxGeometry relative="1" as="geometry">
            <mxPoint x="409.2222222222222" y="90" as="targetPoint" />
          </mxGeometry>
        </mxCell>
        <mxCell id="LPntxPcNXTBSjkaFNB8H-2" value="DATASET (WEB SCRAPPING)&lt;div&gt;(IPL PLAYER STATS)&lt;/div&gt;" style="rounded=1;whiteSpace=wrap;html=1;" vertex="1" parent="1">
          <mxGeometry x="260" y="-10" width="300" height="60" as="geometry" />
        </mxCell>
        <mxCell id="LPntxPcNXTBSjkaFNB8H-92" style="edgeStyle=orthogonalEdgeStyle;rounded=0;orthogonalLoop=1;jettySize=auto;html=1;exitX=0.5;exitY=1;exitDx=0;exitDy=0;entryX=0.5;entryY=0;entryDx=0;entryDy=0;" edge="1" parent="1" source="LPntxPcNXTBSjkaFNB8H-4" target="LPntxPcNXTBSjkaFNB8H-15">
          <mxGeometry relative="1" as="geometry" />
        </mxCell>
        <mxCell id="LPntxPcNXTBSjkaFNB8H-4" value="BATSMEN&amp;nbsp;&lt;div&gt;DATASET&lt;/div&gt;" style="rounded=1;whiteSpace=wrap;html=1;" vertex="1" parent="1">
          <mxGeometry x="110" y="120" width="120" height="60" as="geometry" />
        </mxCell>
        <mxCell id="LPntxPcNXTBSjkaFNB8H-5" value="BOWLER&lt;div&gt;DATASET&lt;/div&gt;" style="rounded=1;whiteSpace=wrap;html=1;" vertex="1" parent="1">
          <mxGeometry x="350" y="120" width="120" height="60" as="geometry" />
        </mxCell>
        <mxCell id="LPntxPcNXTBSjkaFNB8H-93" style="edgeStyle=orthogonalEdgeStyle;rounded=0;orthogonalLoop=1;jettySize=auto;html=1;exitX=0.5;exitY=1;exitDx=0;exitDy=0;entryX=0.5;entryY=0;entryDx=0;entryDy=0;" edge="1" parent="1" source="LPntxPcNXTBSjkaFNB8H-6" target="LPntxPcNXTBSjkaFNB8H-18">
          <mxGeometry relative="1" as="geometry" />
        </mxCell>
        <mxCell id="LPntxPcNXTBSjkaFNB8H-6" value="ALL-ROUNDER&lt;div&gt;DATASET&lt;/div&gt;" style="rounded=1;whiteSpace=wrap;html=1;" vertex="1" parent="1">
          <mxGeometry x="600" y="120" width="120" height="60" as="geometry" />
        </mxCell>
        <mxCell id="LPntxPcNXTBSjkaFNB8H-9" value="" style="endArrow=none;html=1;rounded=0;" edge="1" parent="1">
          <mxGeometry width="50" height="50" relative="1" as="geometry">
            <mxPoint x="414" y="90" as="sourcePoint" />
            <mxPoint x="660" y="90" as="targetPoint" />
          </mxGeometry>
        </mxCell>
        <mxCell id="LPntxPcNXTBSjkaFNB8H-10" value="" style="endArrow=none;html=1;rounded=0;" edge="1" parent="1">
          <mxGeometry width="50" height="50" relative="1" as="geometry">
            <mxPoint x="190" y="90" as="sourcePoint" />
            <mxPoint x="414" y="90" as="targetPoint" />
          </mxGeometry>
        </mxCell>
        <mxCell id="LPntxPcNXTBSjkaFNB8H-123" style="edgeStyle=orthogonalEdgeStyle;rounded=0;orthogonalLoop=1;jettySize=auto;html=1;exitX=0.5;exitY=1;exitDx=0;exitDy=0;entryX=0.5;entryY=0;entryDx=0;entryDy=0;" edge="1" parent="1" source="LPntxPcNXTBSjkaFNB8H-15" target="LPntxPcNXTBSjkaFNB8H-110">
          <mxGeometry relative="1" as="geometry" />
        </mxCell>
        <mxCell id="LPntxPcNXTBSjkaFNB8H-15" value="DATA PREPROCESSING" style="rounded=1;whiteSpace=wrap;html=1;" vertex="1" parent="1">
          <mxGeometry x="110" y="220" width="120" height="60" as="geometry" />
        </mxCell>
        <mxCell id="LPntxPcNXTBSjkaFNB8H-124" style="edgeStyle=orthogonalEdgeStyle;rounded=0;orthogonalLoop=1;jettySize=auto;html=1;exitX=0.5;exitY=1;exitDx=0;exitDy=0;entryX=0.5;entryY=0;entryDx=0;entryDy=0;" edge="1" parent="1" source="LPntxPcNXTBSjkaFNB8H-17" target="LPntxPcNXTBSjkaFNB8H-112">
          <mxGeometry relative="1" as="geometry" />
        </mxCell>
        <mxCell id="LPntxPcNXTBSjkaFNB8H-17" value="DATA PREPROCESSING" style="rounded=1;whiteSpace=wrap;html=1;" vertex="1" parent="1">
          <mxGeometry x="354" y="220" width="120" height="60" as="geometry" />
        </mxCell>
        <mxCell id="LPntxPcNXTBSjkaFNB8H-18" value="DATA PREPROCESSING" style="rounded=1;whiteSpace=wrap;html=1;" vertex="1" parent="1">
          <mxGeometry x="600" y="220" width="120" height="60" as="geometry" />
        </mxCell>
        <mxCell id="LPntxPcNXTBSjkaFNB8H-23" value="TRAIN" style="rounded=1;whiteSpace=wrap;html=1;" vertex="1" parent="1">
          <mxGeometry x="80" y="370" width="80" height="30" as="geometry" />
        </mxCell>
        <mxCell id="LPntxPcNXTBSjkaFNB8H-133" style="edgeStyle=orthogonalEdgeStyle;rounded=0;orthogonalLoop=1;jettySize=auto;html=1;exitX=0.5;exitY=1;exitDx=0;exitDy=0;" edge="1" parent="1" source="LPntxPcNXTBSjkaFNB8H-24">
          <mxGeometry relative="1" as="geometry">
            <mxPoint x="239.84210526315792" y="860" as="targetPoint" />
          </mxGeometry>
        </mxCell>
        <mxCell id="LPntxPcNXTBSjkaFNB8H-24" value="TEST" style="rounded=1;whiteSpace=wrap;html=1;" vertex="1" parent="1">
          <mxGeometry x="200" y="370" width="80" height="30" as="geometry" />
        </mxCell>
        <mxCell id="LPntxPcNXTBSjkaFNB8H-27" value="TRAIN" style="rounded=1;whiteSpace=wrap;html=1;" vertex="1" parent="1">
          <mxGeometry x="320" y="370" width="80" height="30" as="geometry" />
        </mxCell>
        <mxCell id="LPntxPcNXTBSjkaFNB8H-28" value="TRAIN" style="rounded=1;whiteSpace=wrap;html=1;" vertex="1" parent="1">
          <mxGeometry x="585" y="370" width="80" height="30" as="geometry" />
        </mxCell>
        <mxCell id="LPntxPcNXTBSjkaFNB8H-134" style="edgeStyle=orthogonalEdgeStyle;rounded=0;orthogonalLoop=1;jettySize=auto;html=1;exitX=0.75;exitY=1;exitDx=0;exitDy=0;" edge="1" parent="1" source="LPntxPcNXTBSjkaFNB8H-29">
          <mxGeometry relative="1" as="geometry">
            <mxPoint x="479.8421052631579" y="850" as="targetPoint" />
          </mxGeometry>
        </mxCell>
        <mxCell id="LPntxPcNXTBSjkaFNB8H-29" value="TEST" style="rounded=1;whiteSpace=wrap;html=1;" vertex="1" parent="1">
          <mxGeometry x="420" y="370" width="80" height="30" as="geometry" />
        </mxCell>
        <mxCell id="LPntxPcNXTBSjkaFNB8H-135" style="edgeStyle=orthogonalEdgeStyle;rounded=0;orthogonalLoop=1;jettySize=auto;html=1;exitX=0.5;exitY=1;exitDx=0;exitDy=0;" edge="1" parent="1" source="LPntxPcNXTBSjkaFNB8H-30">
          <mxGeometry relative="1" as="geometry">
            <mxPoint x="759.8421052631579" y="860" as="targetPoint" />
          </mxGeometry>
        </mxCell>
        <mxCell id="LPntxPcNXTBSjkaFNB8H-30" value="TEST" style="rounded=1;whiteSpace=wrap;html=1;" vertex="1" parent="1">
          <mxGeometry x="720" y="370" width="80" height="30" as="geometry" />
        </mxCell>
        <mxCell id="LPntxPcNXTBSjkaFNB8H-47" value="1.LINEAR&amp;nbsp;&lt;div&gt;REGRESSION&lt;/div&gt;&lt;div&gt;&lt;br&gt;&lt;/div&gt;&lt;div&gt;2. RIDGE&lt;/div&gt;&lt;div&gt;REGRESSION&lt;/div&gt;&lt;div&gt;&lt;br&gt;&lt;/div&gt;&lt;div&gt;3.LASSO&lt;/div&gt;&lt;div&gt;&amp;nbsp;REGRESSION&lt;/div&gt;&lt;div&gt;&lt;br&gt;&lt;/div&gt;&lt;div&gt;4.&amp;nbsp;&lt;span style=&quot;background-color: initial;&quot;&gt;DECISION TREE&lt;/span&gt;&lt;/div&gt;&lt;div&gt;REGRESSOR&lt;/div&gt;&lt;div&gt;&lt;br&gt;&lt;/div&gt;&lt;div&gt;5. SVR&lt;/div&gt;&lt;div&gt;&lt;br&gt;&lt;/div&gt;&lt;div&gt;6.RFR&lt;/div&gt;&lt;div&gt;(RANDOM FOREST&lt;/div&gt;&lt;div&gt;REGRESSOR)&lt;/div&gt;&lt;div&gt;&lt;br&gt;&lt;/div&gt;&lt;div&gt;7.KNN&lt;/div&gt;&lt;div&gt;&lt;br&gt;&lt;/div&gt;&lt;div&gt;8.BOOSTING ALGO&lt;/div&gt;&lt;div&gt;REGRESSOR&lt;/div&gt;" style="rounded=1;whiteSpace=wrap;html=1;" vertex="1" parent="1">
          <mxGeometry x="50" y="440" width="130" height="370" as="geometry" />
        </mxCell>
        <mxCell id="LPntxPcNXTBSjkaFNB8H-127" style="edgeStyle=orthogonalEdgeStyle;rounded=0;orthogonalLoop=1;jettySize=auto;html=1;exitX=0.5;exitY=1;exitDx=0;exitDy=0;" edge="1" parent="1" source="LPntxPcNXTBSjkaFNB8H-49" target="LPntxPcNXTBSjkaFNB8H-52">
          <mxGeometry relative="1" as="geometry" />
        </mxCell>
        <mxCell id="LPntxPcNXTBSjkaFNB8H-49" value="1.LINEAR&amp;nbsp;&lt;div&gt;REGRESSION&lt;/div&gt;&lt;div&gt;&lt;br&gt;&lt;/div&gt;&lt;div&gt;2. RIDGE&lt;/div&gt;&lt;div&gt;REGRESSION&lt;/div&gt;&lt;div&gt;&lt;br&gt;&lt;/div&gt;&lt;div&gt;3.LASSO&lt;/div&gt;&lt;div&gt;&amp;nbsp;REGRESSION&lt;/div&gt;&lt;div&gt;&lt;br&gt;&lt;/div&gt;&lt;div&gt;4.&amp;nbsp;&lt;span style=&quot;background-color: initial;&quot;&gt;DECISION TREE&lt;/span&gt;&lt;/div&gt;&lt;div&gt;REGRESSOR&lt;/div&gt;&lt;div&gt;&lt;br&gt;&lt;/div&gt;&lt;div&gt;5. SVR&lt;/div&gt;&lt;div&gt;&lt;br&gt;&lt;/div&gt;&lt;div&gt;6.RFR&lt;/div&gt;&lt;div&gt;(RANDOM FOREST&lt;/div&gt;&lt;div&gt;REGRESSOR)&lt;/div&gt;&lt;div&gt;&lt;br&gt;&lt;/div&gt;&lt;div&gt;7.KNN&lt;/div&gt;&lt;div&gt;&lt;br&gt;&lt;/div&gt;&lt;div&gt;8.BOOSTING ALGO&lt;/div&gt;&lt;div&gt;REGRESSOR&lt;/div&gt;" style="rounded=1;whiteSpace=wrap;html=1;" vertex="1" parent="1">
          <mxGeometry x="310" y="430" width="130" height="370" as="geometry" />
        </mxCell>
        <mxCell id="LPntxPcNXTBSjkaFNB8H-128" style="edgeStyle=orthogonalEdgeStyle;rounded=0;orthogonalLoop=1;jettySize=auto;html=1;exitX=0.5;exitY=1;exitDx=0;exitDy=0;" edge="1" parent="1" source="LPntxPcNXTBSjkaFNB8H-50" target="LPntxPcNXTBSjkaFNB8H-53">
          <mxGeometry relative="1" as="geometry" />
        </mxCell>
        <mxCell id="LPntxPcNXTBSjkaFNB8H-50" value="1.LINEAR&amp;nbsp;&lt;div&gt;REGRESSION&lt;/div&gt;&lt;div&gt;&lt;br&gt;&lt;/div&gt;&lt;div&gt;2. RIDGE&lt;/div&gt;&lt;div&gt;REGRESSION&lt;/div&gt;&lt;div&gt;&lt;br&gt;&lt;/div&gt;&lt;div&gt;3.LASSO&lt;/div&gt;&lt;div&gt;&amp;nbsp;REGRESSION&lt;/div&gt;&lt;div&gt;&lt;br&gt;&lt;/div&gt;&lt;div&gt;4.&amp;nbsp;&lt;span style=&quot;background-color: initial;&quot;&gt;DECISION TREE&lt;/span&gt;&lt;/div&gt;&lt;div&gt;REGRESSOR&lt;/div&gt;&lt;div&gt;&lt;br&gt;&lt;/div&gt;&lt;div&gt;5. SVR&lt;/div&gt;&lt;div&gt;&lt;br&gt;&lt;/div&gt;&lt;div&gt;6.RFR&lt;/div&gt;&lt;div&gt;(RANDOM FOREST&lt;/div&gt;&lt;div&gt;REGRESSOR)&lt;/div&gt;&lt;div&gt;&lt;br&gt;&lt;/div&gt;&lt;div&gt;7.KNN&lt;/div&gt;&lt;div&gt;&lt;br&gt;&lt;/div&gt;&lt;div&gt;8.BOOSTING ALGO&lt;/div&gt;&lt;div&gt;REGRESSOR&lt;/div&gt;" style="rounded=1;whiteSpace=wrap;html=1;" vertex="1" parent="1">
          <mxGeometry x="570" y="430" width="130" height="370" as="geometry" />
        </mxCell>
        <mxCell id="LPntxPcNXTBSjkaFNB8H-51" value="MODEL.PREDICT" style="rounded=1;whiteSpace=wrap;html=1;" vertex="1" parent="1">
          <mxGeometry x="70" y="840" width="110" height="50" as="geometry" />
        </mxCell>
        <mxCell id="LPntxPcNXTBSjkaFNB8H-52" value="MODEL.PREDICT" style="rounded=1;whiteSpace=wrap;html=1;" vertex="1" parent="1">
          <mxGeometry x="335" y="830" width="115" height="50" as="geometry" />
        </mxCell>
        <mxCell id="LPntxPcNXTBSjkaFNB8H-53" value="MODEL.PREDICT" style="rounded=1;whiteSpace=wrap;html=1;" vertex="1" parent="1">
          <mxGeometry x="590" y="830" width="105" height="50" as="geometry" />
        </mxCell>
        <mxCell id="LPntxPcNXTBSjkaFNB8H-114" style="edgeStyle=orthogonalEdgeStyle;rounded=0;orthogonalLoop=1;jettySize=auto;html=1;exitX=0.5;exitY=1;exitDx=0;exitDy=0;entryX=0.5;entryY=0;entryDx=0;entryDy=0;" edge="1" parent="1" source="LPntxPcNXTBSjkaFNB8H-67" target="LPntxPcNXTBSjkaFNB8H-95">
          <mxGeometry relative="1" as="geometry" />
        </mxCell>
        <mxCell id="LPntxPcNXTBSjkaFNB8H-67" value="ACCURACY&amp;nbsp;&lt;div&gt;OF THE MODEL&lt;/div&gt;" style="rounded=1;whiteSpace=wrap;html=1;" vertex="1" parent="1">
          <mxGeometry x="70" y="1100" width="120" height="40" as="geometry" />
        </mxCell>
        <mxCell id="LPntxPcNXTBSjkaFNB8H-115" style="edgeStyle=orthogonalEdgeStyle;rounded=0;orthogonalLoop=1;jettySize=auto;html=1;exitX=0.5;exitY=1;exitDx=0;exitDy=0;entryX=0.5;entryY=0;entryDx=0;entryDy=0;" edge="1" parent="1" source="LPntxPcNXTBSjkaFNB8H-68" target="LPntxPcNXTBSjkaFNB8H-96">
          <mxGeometry relative="1" as="geometry" />
        </mxCell>
        <mxCell id="LPntxPcNXTBSjkaFNB8H-68" value="&lt;meta charset=&quot;utf-8&quot;&gt;&lt;span style=&quot;color: rgb(0, 0, 0); font-family: Helvetica; font-size: 12px; font-style: normal; font-variant-ligatures: normal; font-variant-caps: normal; font-weight: 400; letter-spacing: normal; orphans: 2; text-align: center; text-indent: 0px; text-transform: none; widows: 2; word-spacing: 0px; -webkit-text-stroke-width: 0px; white-space: normal; background-color: rgb(251, 251, 251); text-decoration-thickness: initial; text-decoration-style: initial; text-decoration-color: initial; display: inline !important; float: none;&quot;&gt;ACCURACY&amp;nbsp;&lt;/span&gt;&lt;div style=&quot;forced-color-adjust: none; color: rgb(0, 0, 0); font-family: Helvetica; font-size: 12px; font-style: normal; font-variant-ligatures: normal; font-variant-caps: normal; font-weight: 400; letter-spacing: normal; orphans: 2; text-align: center; text-indent: 0px; text-transform: none; widows: 2; word-spacing: 0px; -webkit-text-stroke-width: 0px; white-space: normal; background-color: rgb(251, 251, 251); text-decoration-thickness: initial; text-decoration-style: initial; text-decoration-color: initial;&quot;&gt;OF THE MODEL&lt;/div&gt;" style="rounded=1;whiteSpace=wrap;html=1;" vertex="1" parent="1">
          <mxGeometry x="335" y="1100" width="120" height="40" as="geometry" />
        </mxCell>
        <mxCell id="LPntxPcNXTBSjkaFNB8H-69" value="&lt;meta charset=&quot;utf-8&quot;&gt;&lt;span style=&quot;color: rgb(0, 0, 0); font-family: Helvetica; font-size: 12px; font-style: normal; font-variant-ligatures: normal; font-variant-caps: normal; font-weight: 400; letter-spacing: normal; orphans: 2; text-align: center; text-indent: 0px; text-transform: none; widows: 2; word-spacing: 0px; -webkit-text-stroke-width: 0px; white-space: normal; background-color: rgb(251, 251, 251); text-decoration-thickness: initial; text-decoration-style: initial; text-decoration-color: initial; display: inline !important; float: none;&quot;&gt;ACCURACY&amp;nbsp;&lt;/span&gt;&lt;div style=&quot;forced-color-adjust: none; color: rgb(0, 0, 0); font-family: Helvetica; font-size: 12px; font-style: normal; font-variant-ligatures: normal; font-variant-caps: normal; font-weight: 400; letter-spacing: normal; orphans: 2; text-align: center; text-indent: 0px; text-transform: none; widows: 2; word-spacing: 0px; -webkit-text-stroke-width: 0px; white-space: normal; background-color: rgb(251, 251, 251); text-decoration-thickness: initial; text-decoration-style: initial; text-decoration-color: initial;&quot;&gt;OF THE MODEL&lt;/div&gt;" style="rounded=1;whiteSpace=wrap;html=1;" vertex="1" parent="1">
          <mxGeometry x="585" y="1100" width="120" height="40" as="geometry" />
        </mxCell>
        <mxCell id="LPntxPcNXTBSjkaFNB8H-73" value="MODEL&amp;nbsp;&lt;div&gt;EVALUATION&lt;/div&gt;&lt;div&gt;&lt;br&gt;&lt;/div&gt;&lt;div&gt;MSE&lt;/div&gt;&lt;div&gt;MAE&lt;/div&gt;&lt;div&gt;R2&lt;/div&gt;&lt;div&gt;RMSE&lt;/div&gt;&lt;div&gt;AJDUSTED R2&lt;/div&gt;" style="rounded=1;whiteSpace=wrap;html=1;" vertex="1" parent="1">
          <mxGeometry x="85" y="920" width="90" height="140" as="geometry" />
        </mxCell>
        <mxCell id="LPntxPcNXTBSjkaFNB8H-74" value="MODEL&amp;nbsp;&lt;div&gt;EVALUATION&lt;/div&gt;&lt;div&gt;&lt;br&gt;&lt;/div&gt;&lt;div&gt;MSE&lt;/div&gt;&lt;div&gt;MAE&lt;/div&gt;&lt;div&gt;R2&lt;/div&gt;&lt;div&gt;RMSE&lt;/div&gt;&lt;div&gt;AJDUSTED R2&lt;/div&gt;" style="rounded=1;whiteSpace=wrap;html=1;" vertex="1" parent="1">
          <mxGeometry x="350" y="930" width="90" height="140" as="geometry" />
        </mxCell>
        <mxCell id="LPntxPcNXTBSjkaFNB8H-75" value="MODEL&amp;nbsp;&lt;div&gt;EVALUATION&lt;/div&gt;&lt;div&gt;&lt;br&gt;&lt;/div&gt;&lt;div&gt;MSE&lt;/div&gt;&lt;div&gt;MAE&lt;/div&gt;&lt;div&gt;R2&lt;/div&gt;&lt;div&gt;RMSE&lt;/div&gt;&lt;div&gt;AJDUSTED R2&lt;/div&gt;" style="rounded=1;whiteSpace=wrap;html=1;" vertex="1" parent="1">
          <mxGeometry x="600" y="920" width="90" height="140" as="geometry" />
        </mxCell>
        <mxCell id="LPntxPcNXTBSjkaFNB8H-79" value="" style="endArrow=classic;html=1;rounded=0;exitX=0.5;exitY=1;exitDx=0;exitDy=0;entryX=0.5;entryY=0;entryDx=0;entryDy=0;" edge="1" parent="1" source="LPntxPcNXTBSjkaFNB8H-73" target="LPntxPcNXTBSjkaFNB8H-67">
          <mxGeometry width="50" height="50" relative="1" as="geometry">
            <mxPoint x="700" y="900" as="sourcePoint" />
            <mxPoint x="750" y="850" as="targetPoint" />
          </mxGeometry>
        </mxCell>
        <mxCell id="LPntxPcNXTBSjkaFNB8H-81" value="" style="endArrow=classic;html=1;rounded=0;exitX=0.5;exitY=1;exitDx=0;exitDy=0;" edge="1" parent="1" source="LPntxPcNXTBSjkaFNB8H-53" target="LPntxPcNXTBSjkaFNB8H-75">
          <mxGeometry width="50" height="50" relative="1" as="geometry">
            <mxPoint x="660" y="910" as="sourcePoint" />
            <mxPoint x="710" y="860" as="targetPoint" />
          </mxGeometry>
        </mxCell>
        <mxCell id="LPntxPcNXTBSjkaFNB8H-83" value="" style="endArrow=classic;html=1;rounded=0;exitX=0.5;exitY=1;exitDx=0;exitDy=0;entryX=0.5;entryY=0;entryDx=0;entryDy=0;" edge="1" parent="1" source="LPntxPcNXTBSjkaFNB8H-74" target="LPntxPcNXTBSjkaFNB8H-68">
          <mxGeometry width="50" height="50" relative="1" as="geometry">
            <mxPoint x="700" y="880" as="sourcePoint" />
            <mxPoint x="750" y="830" as="targetPoint" />
          </mxGeometry>
        </mxCell>
        <mxCell id="LPntxPcNXTBSjkaFNB8H-84" value="" style="endArrow=classic;html=1;rounded=0;exitX=0.5;exitY=1;exitDx=0;exitDy=0;entryX=0.5;entryY=0;entryDx=0;entryDy=0;" edge="1" parent="1" source="LPntxPcNXTBSjkaFNB8H-75" target="LPntxPcNXTBSjkaFNB8H-69">
          <mxGeometry width="50" height="50" relative="1" as="geometry">
            <mxPoint x="700" y="880" as="sourcePoint" />
            <mxPoint x="750" y="830" as="targetPoint" />
          </mxGeometry>
        </mxCell>
        <mxCell id="LPntxPcNXTBSjkaFNB8H-87" value="" style="endArrow=classic;html=1;rounded=0;exitX=0.5;exitY=1;exitDx=0;exitDy=0;entryX=0.5;entryY=0;entryDx=0;entryDy=0;" edge="1" parent="1" source="LPntxPcNXTBSjkaFNB8H-1" target="LPntxPcNXTBSjkaFNB8H-2">
          <mxGeometry width="50" height="50" relative="1" as="geometry">
            <mxPoint x="690" y="640" as="sourcePoint" />
            <mxPoint x="740" y="590" as="targetPoint" />
          </mxGeometry>
        </mxCell>
        <mxCell id="LPntxPcNXTBSjkaFNB8H-91" style="edgeStyle=orthogonalEdgeStyle;rounded=0;orthogonalLoop=1;jettySize=auto;html=1;exitX=0.5;exitY=1;exitDx=0;exitDy=0;entryX=0.466;entryY=-0.014;entryDx=0;entryDy=0;entryPerimeter=0;" edge="1" parent="1" source="LPntxPcNXTBSjkaFNB8H-5" target="LPntxPcNXTBSjkaFNB8H-17">
          <mxGeometry relative="1" as="geometry" />
        </mxCell>
        <mxCell id="LPntxPcNXTBSjkaFNB8H-94" value="Text" style="text;html=1;align=center;verticalAlign=middle;resizable=0;points=[];autosize=1;strokeColor=none;fillColor=none;" vertex="1" parent="1">
          <mxGeometry x="335" y="1258" width="50" height="30" as="geometry" />
        </mxCell>
        <mxCell id="LPntxPcNXTBSjkaFNB8H-95" value="PICKEL&lt;div&gt;FILE 1&lt;/div&gt;" style="rounded=1;whiteSpace=wrap;html=1;" vertex="1" parent="1">
          <mxGeometry x="70" y="1198" width="120" height="60" as="geometry" />
        </mxCell>
        <mxCell id="LPntxPcNXTBSjkaFNB8H-96" value="PICKLE&amp;nbsp;&lt;div&gt;FILE 2&lt;/div&gt;" style="rounded=1;whiteSpace=wrap;html=1;" vertex="1" parent="1">
          <mxGeometry x="335" y="1198" width="120" height="60" as="geometry" />
        </mxCell>
        <mxCell id="LPntxPcNXTBSjkaFNB8H-97" value="PICKLE&lt;div&gt;FILE 3&lt;/div&gt;" style="rounded=1;whiteSpace=wrap;html=1;" vertex="1" parent="1">
          <mxGeometry x="590" y="1198" width="120" height="60" as="geometry" />
        </mxCell>
        <mxCell id="LPntxPcNXTBSjkaFNB8H-105" style="edgeStyle=orthogonalEdgeStyle;rounded=0;orthogonalLoop=1;jettySize=auto;html=1;exitX=0.5;exitY=1;exitDx=0;exitDy=0;entryX=0.5;entryY=0;entryDx=0;entryDy=0;" edge="1" parent="1" source="LPntxPcNXTBSjkaFNB8H-99" target="LPntxPcNXTBSjkaFNB8H-100">
          <mxGeometry relative="1" as="geometry" />
        </mxCell>
        <mxCell id="LPntxPcNXTBSjkaFNB8H-99" value="FLASK SERVER" style="rounded=1;whiteSpace=wrap;html=1;" vertex="1" parent="1">
          <mxGeometry x="50" y="1300" width="700" height="60" as="geometry" />
        </mxCell>
        <mxCell id="LPntxPcNXTBSjkaFNB8H-100" value="FRONTEND OF THE PROJECT" style="rounded=1;whiteSpace=wrap;html=1;" vertex="1" parent="1">
          <mxGeometry x="50" y="1450" width="700" height="60" as="geometry" />
        </mxCell>
        <mxCell id="LPntxPcNXTBSjkaFNB8H-106" style="edgeStyle=orthogonalEdgeStyle;rounded=0;orthogonalLoop=1;jettySize=auto;html=1;exitX=0.5;exitY=1;exitDx=0;exitDy=0;entryX=0.492;entryY=-0.006;entryDx=0;entryDy=0;entryPerimeter=0;" edge="1" parent="1" source="LPntxPcNXTBSjkaFNB8H-96" target="LPntxPcNXTBSjkaFNB8H-99">
          <mxGeometry relative="1" as="geometry" />
        </mxCell>
        <mxCell id="LPntxPcNXTBSjkaFNB8H-108" style="edgeStyle=orthogonalEdgeStyle;rounded=0;orthogonalLoop=1;jettySize=auto;html=1;exitX=0.5;exitY=1;exitDx=0;exitDy=0;entryX=0.115;entryY=-0.006;entryDx=0;entryDy=0;entryPerimeter=0;" edge="1" parent="1" source="LPntxPcNXTBSjkaFNB8H-95" target="LPntxPcNXTBSjkaFNB8H-99">
          <mxGeometry relative="1" as="geometry" />
        </mxCell>
        <mxCell id="LPntxPcNXTBSjkaFNB8H-109" style="edgeStyle=orthogonalEdgeStyle;rounded=0;orthogonalLoop=1;jettySize=auto;html=1;exitX=0.5;exitY=1;exitDx=0;exitDy=0;entryX=0.858;entryY=0.008;entryDx=0;entryDy=0;entryPerimeter=0;" edge="1" parent="1" source="LPntxPcNXTBSjkaFNB8H-97" target="LPntxPcNXTBSjkaFNB8H-99">
          <mxGeometry relative="1" as="geometry" />
        </mxCell>
        <mxCell id="LPntxPcNXTBSjkaFNB8H-141" style="edgeStyle=orthogonalEdgeStyle;rounded=0;orthogonalLoop=1;jettySize=auto;html=1;exitX=0.5;exitY=1;exitDx=0;exitDy=0;" edge="1" parent="1" source="LPntxPcNXTBSjkaFNB8H-110">
          <mxGeometry relative="1" as="geometry">
            <mxPoint x="169.69230769230762" y="359.9999999999998" as="targetPoint" />
          </mxGeometry>
        </mxCell>
        <mxCell id="LPntxPcNXTBSjkaFNB8H-110" value="VISUALIZATION" style="rounded=1;whiteSpace=wrap;html=1;" vertex="1" parent="1">
          <mxGeometry x="110" y="300" width="120" height="30" as="geometry" />
        </mxCell>
        <mxCell id="LPntxPcNXTBSjkaFNB8H-142" style="edgeStyle=orthogonalEdgeStyle;rounded=0;orthogonalLoop=1;jettySize=auto;html=1;exitX=0.5;exitY=1;exitDx=0;exitDy=0;" edge="1" parent="1" source="LPntxPcNXTBSjkaFNB8H-112">
          <mxGeometry relative="1" as="geometry">
            <mxPoint x="414.30769230769215" y="359.9999999999998" as="targetPoint" />
          </mxGeometry>
        </mxCell>
        <mxCell id="LPntxPcNXTBSjkaFNB8H-112" value="VISUALIZATION" style="rounded=1;whiteSpace=wrap;html=1;" vertex="1" parent="1">
          <mxGeometry x="354" y="300" width="120" height="30" as="geometry" />
        </mxCell>
        <mxCell id="LPntxPcNXTBSjkaFNB8H-143" style="edgeStyle=orthogonalEdgeStyle;rounded=0;orthogonalLoop=1;jettySize=auto;html=1;exitX=0.5;exitY=1;exitDx=0;exitDy=0;" edge="1" parent="1" source="LPntxPcNXTBSjkaFNB8H-113">
          <mxGeometry relative="1" as="geometry">
            <mxPoint x="659.6923076923076" y="359.9999999999998" as="targetPoint" />
          </mxGeometry>
        </mxCell>
        <mxCell id="LPntxPcNXTBSjkaFNB8H-113" value="VISUALIZATION" style="rounded=1;whiteSpace=wrap;html=1;" vertex="1" parent="1">
          <mxGeometry x="600" y="300" width="120" height="30" as="geometry" />
        </mxCell>
        <mxCell id="LPntxPcNXTBSjkaFNB8H-116" style="edgeStyle=orthogonalEdgeStyle;rounded=0;orthogonalLoop=1;jettySize=auto;html=1;exitX=0.5;exitY=1;exitDx=0;exitDy=0;entryX=0.452;entryY=-0.017;entryDx=0;entryDy=0;entryPerimeter=0;" edge="1" parent="1" source="LPntxPcNXTBSjkaFNB8H-69" target="LPntxPcNXTBSjkaFNB8H-97">
          <mxGeometry relative="1" as="geometry" />
        </mxCell>
        <mxCell id="LPntxPcNXTBSjkaFNB8H-120" value="" style="endArrow=classic;html=1;rounded=0;entryX=0.5;entryY=0;entryDx=0;entryDy=0;" edge="1" parent="1" target="LPntxPcNXTBSjkaFNB8H-6">
          <mxGeometry width="50" height="50" relative="1" as="geometry">
            <mxPoint x="660" y="90" as="sourcePoint" />
            <mxPoint x="710" y="120" as="targetPoint" />
          </mxGeometry>
        </mxCell>
        <mxCell id="LPntxPcNXTBSjkaFNB8H-121" value="" style="endArrow=classic;html=1;rounded=0;" edge="1" parent="1">
          <mxGeometry width="50" height="50" relative="1" as="geometry">
            <mxPoint x="410" y="90" as="sourcePoint" />
            <mxPoint x="410" y="120" as="targetPoint" />
          </mxGeometry>
        </mxCell>
        <mxCell id="LPntxPcNXTBSjkaFNB8H-122" value="" style="endArrow=classic;html=1;rounded=0;entryX=0.667;entryY=0;entryDx=0;entryDy=0;entryPerimeter=0;" edge="1" parent="1" target="LPntxPcNXTBSjkaFNB8H-4">
          <mxGeometry width="50" height="50" relative="1" as="geometry">
            <mxPoint x="190" y="90" as="sourcePoint" />
            <mxPoint x="260" y="120" as="targetPoint" />
          </mxGeometry>
        </mxCell>
        <mxCell id="LPntxPcNXTBSjkaFNB8H-125" style="edgeStyle=orthogonalEdgeStyle;rounded=0;orthogonalLoop=1;jettySize=auto;html=1;exitX=0.5;exitY=1;exitDx=0;exitDy=0;entryX=0.511;entryY=-0.092;entryDx=0;entryDy=0;entryPerimeter=0;" edge="1" parent="1" source="LPntxPcNXTBSjkaFNB8H-18" target="LPntxPcNXTBSjkaFNB8H-113">
          <mxGeometry relative="1" as="geometry" />
        </mxCell>
        <mxCell id="LPntxPcNXTBSjkaFNB8H-126" style="edgeStyle=orthogonalEdgeStyle;rounded=0;orthogonalLoop=1;jettySize=auto;html=1;exitX=0.5;exitY=1;exitDx=0;exitDy=0;entryX=0.406;entryY=-0.004;entryDx=0;entryDy=0;entryPerimeter=0;" edge="1" parent="1" source="LPntxPcNXTBSjkaFNB8H-47" target="LPntxPcNXTBSjkaFNB8H-51">
          <mxGeometry relative="1" as="geometry" />
        </mxCell>
        <mxCell id="LPntxPcNXTBSjkaFNB8H-130" style="edgeStyle=orthogonalEdgeStyle;rounded=0;orthogonalLoop=1;jettySize=auto;html=1;exitX=0.5;exitY=1;exitDx=0;exitDy=0;entryX=0.555;entryY=-0.004;entryDx=0;entryDy=0;entryPerimeter=0;" edge="1" parent="1" source="LPntxPcNXTBSjkaFNB8H-23" target="LPntxPcNXTBSjkaFNB8H-47">
          <mxGeometry relative="1" as="geometry" />
        </mxCell>
        <mxCell id="LPntxPcNXTBSjkaFNB8H-131" style="edgeStyle=orthogonalEdgeStyle;rounded=0;orthogonalLoop=1;jettySize=auto;html=1;exitX=0.5;exitY=1;exitDx=0;exitDy=0;entryX=0.424;entryY=-0.004;entryDx=0;entryDy=0;entryPerimeter=0;" edge="1" parent="1" source="LPntxPcNXTBSjkaFNB8H-28" target="LPntxPcNXTBSjkaFNB8H-50">
          <mxGeometry relative="1" as="geometry" />
        </mxCell>
        <mxCell id="LPntxPcNXTBSjkaFNB8H-132" style="edgeStyle=orthogonalEdgeStyle;rounded=0;orthogonalLoop=1;jettySize=auto;html=1;exitX=0.5;exitY=1;exitDx=0;exitDy=0;entryX=0.383;entryY=-0.007;entryDx=0;entryDy=0;entryPerimeter=0;" edge="1" parent="1" source="LPntxPcNXTBSjkaFNB8H-27" target="LPntxPcNXTBSjkaFNB8H-49">
          <mxGeometry relative="1" as="geometry" />
        </mxCell>
        <mxCell id="LPntxPcNXTBSjkaFNB8H-136" style="edgeStyle=orthogonalEdgeStyle;rounded=0;orthogonalLoop=1;jettySize=auto;html=1;exitX=0.5;exitY=1;exitDx=0;exitDy=0;entryX=0.466;entryY=-0.002;entryDx=0;entryDy=0;entryPerimeter=0;" edge="1" parent="1" source="LPntxPcNXTBSjkaFNB8H-52" target="LPntxPcNXTBSjkaFNB8H-74">
          <mxGeometry relative="1" as="geometry" />
        </mxCell>
        <mxCell id="LPntxPcNXTBSjkaFNB8H-137" style="edgeStyle=orthogonalEdgeStyle;rounded=0;orthogonalLoop=1;jettySize=auto;html=1;exitX=0.5;exitY=1;exitDx=0;exitDy=0;entryX=0.456;entryY=0.014;entryDx=0;entryDy=0;entryPerimeter=0;" edge="1" parent="1" source="LPntxPcNXTBSjkaFNB8H-51" target="LPntxPcNXTBSjkaFNB8H-73">
          <mxGeometry relative="1" as="geometry" />
        </mxCell>
        <mxCell id="LPntxPcNXTBSjkaFNB8H-138" value="" style="endArrow=classic;html=1;rounded=0;entryX=1.011;entryY=0.415;entryDx=0;entryDy=0;entryPerimeter=0;" edge="1" parent="1" target="LPntxPcNXTBSjkaFNB8H-51">
          <mxGeometry width="50" height="50" relative="1" as="geometry">
            <mxPoint x="240" y="860" as="sourcePoint" />
            <mxPoint x="380" y="830" as="targetPoint" />
          </mxGeometry>
        </mxCell>
        <mxCell id="LPntxPcNXTBSjkaFNB8H-139" value="" style="endArrow=classic;html=1;rounded=0;entryX=1.011;entryY=0.405;entryDx=0;entryDy=0;entryPerimeter=0;" edge="1" parent="1" target="LPntxPcNXTBSjkaFNB8H-52">
          <mxGeometry width="50" height="50" relative="1" as="geometry">
            <mxPoint x="480" y="850" as="sourcePoint" />
            <mxPoint x="580" y="830" as="targetPoint" />
          </mxGeometry>
        </mxCell>
        <mxCell id="LPntxPcNXTBSjkaFNB8H-140" value="" style="endArrow=classic;html=1;rounded=0;" edge="1" parent="1">
          <mxGeometry width="50" height="50" relative="1" as="geometry">
            <mxPoint x="760" y="860" as="sourcePoint" />
            <mxPoint x="700" y="860" as="targetPoint" />
          </mxGeometry>
        </mxCell>
        <mxCell id="LPntxPcNXTBSjkaFNB8H-144" value="" style="endArrow=none;html=1;rounded=0;" edge="1" parent="1">
          <mxGeometry width="50" height="50" relative="1" as="geometry">
            <mxPoint x="120" y="360" as="sourcePoint" />
            <mxPoint x="230" y="360" as="targetPoint" />
          </mxGeometry>
        </mxCell>
        <mxCell id="LPntxPcNXTBSjkaFNB8H-145" value="" style="endArrow=none;html=1;rounded=0;" edge="1" parent="1">
          <mxGeometry width="50" height="50" relative="1" as="geometry">
            <mxPoint x="360" y="360" as="sourcePoint" />
            <mxPoint x="470" y="360" as="targetPoint" />
          </mxGeometry>
        </mxCell>
        <mxCell id="LPntxPcNXTBSjkaFNB8H-146" value="" style="endArrow=none;html=1;rounded=0;" edge="1" parent="1">
          <mxGeometry width="50" height="50" relative="1" as="geometry">
            <mxPoint x="600" y="360" as="sourcePoint" />
            <mxPoint x="760" y="360" as="targetPoint" />
          </mxGeometry>
        </mxCell>
        <mxCell id="LPntxPcNXTBSjkaFNB8H-147" value="" style="endArrow=classic;html=1;rounded=0;entryX=0.5;entryY=0;entryDx=0;entryDy=0;" edge="1" parent="1" target="LPntxPcNXTBSjkaFNB8H-23">
          <mxGeometry width="50" height="50" relative="1" as="geometry">
            <mxPoint x="120" y="360" as="sourcePoint" />
            <mxPoint x="115" y="340" as="targetPoint" />
          </mxGeometry>
        </mxCell>
        <mxCell id="LPntxPcNXTBSjkaFNB8H-148" value="" style="endArrow=classic;html=1;rounded=0;entryX=0.374;entryY=0.041;entryDx=0;entryDy=0;entryPerimeter=0;" edge="1" parent="1" target="LPntxPcNXTBSjkaFNB8H-24">
          <mxGeometry width="50" height="50" relative="1" as="geometry">
            <mxPoint x="230" y="360" as="sourcePoint" />
            <mxPoint x="330" y="380" as="targetPoint" />
          </mxGeometry>
        </mxCell>
        <mxCell id="LPntxPcNXTBSjkaFNB8H-149" value="" style="endArrow=classic;html=1;rounded=0;entryX=0.5;entryY=0;entryDx=0;entryDy=0;" edge="1" parent="1" target="LPntxPcNXTBSjkaFNB8H-27">
          <mxGeometry width="50" height="50" relative="1" as="geometry">
            <mxPoint x="360" y="360" as="sourcePoint" />
            <mxPoint x="400" y="360" as="targetPoint" />
          </mxGeometry>
        </mxCell>
        <mxCell id="LPntxPcNXTBSjkaFNB8H-150" value="" style="endArrow=classic;html=1;rounded=0;entryX=0.627;entryY=0.007;entryDx=0;entryDy=0;entryPerimeter=0;" edge="1" parent="1" target="LPntxPcNXTBSjkaFNB8H-29">
          <mxGeometry width="50" height="50" relative="1" as="geometry">
            <mxPoint x="470" y="360" as="sourcePoint" />
            <mxPoint x="500" y="360" as="targetPoint" />
          </mxGeometry>
        </mxCell>
        <mxCell id="LPntxPcNXTBSjkaFNB8H-151" value="" style="endArrow=classic;html=1;rounded=0;entryX=0.195;entryY=0.079;entryDx=0;entryDy=0;entryPerimeter=0;" edge="1" parent="1" target="LPntxPcNXTBSjkaFNB8H-28">
          <mxGeometry width="50" height="50" relative="1" as="geometry">
            <mxPoint x="600" y="360" as="sourcePoint" />
            <mxPoint x="660" y="380" as="targetPoint" />
          </mxGeometry>
        </mxCell>
        <mxCell id="LPntxPcNXTBSjkaFNB8H-152" value="" style="endArrow=classic;html=1;rounded=0;entryX=0.5;entryY=0;entryDx=0;entryDy=0;" edge="1" parent="1" target="LPntxPcNXTBSjkaFNB8H-30">
          <mxGeometry width="50" height="50" relative="1" as="geometry">
            <mxPoint x="760" y="360" as="sourcePoint" />
            <mxPoint x="660" y="380" as="targetPoint" />
          </mxGeometry>
        </mxCell>
      </root>
    </mxGraphModel>
  </diagram>
</mxfile>
